<svg id="Layer_1" data-name="Layer 1" xmlns="http://www.w3.org/2000/svg" viewBox="0 0 500 500"><defs><style>.cls-1{fill:#fff;}.cls-2{fill:#ffee01;}.cls-3{fill:#ae1313;}</style></defs><title>bill</title><rect class="cls-1" width="500" height="500"/><path class="cls-2" d="M964.28,282.76a60.17,60.17,0,1,1-57.71,43A60.16,60.16,0,0,1,964.28,282.76Z" transform="translate(-627.09 -173.5)"/><path class="cls-1" d="M955.92,510.38v.35a31.14,31.14,0,0,1-31.14,31.13h0c-.71,0-1.43,0-2.13-.07a31.24,31.24,0,0,1-28.88-31.34V490.16H788.71v-.27l1.11-164.18h116.4l.09,0a60.29,60.29,0,0,0,49.61,76.94ZM832.63,383.23a9.59,9.59,0,1,0-10-9.57A9.81,9.81,0,0,0,832.63,383.23Zm0,39.67a9.59,9.59,0,1,0-10-9.59A9.82,9.82,0,0,0,832.63,422.9Zm0,39.65a9.59,9.59,0,1,0-10-9.58A9.82,9.82,0,0,0,832.63,462.55Z" transform="translate(-627.09 -173.5)"/><path class="cls-3" d="M922.8,541.79v.07H783.62a31.29,31.29,0,0,1-31.21-31.34V490.16H893.77v20.29A31.31,31.31,0,0,0,922.8,541.79Z" transform="translate(-627.09 -173.5)"/><path class="cls-2" d="M842.67,373.66a10.05,10.05,0,1,1-10-9.58A9.81,9.81,0,0,1,842.67,373.66Z" transform="translate(-627.09 -173.5)"/><path class="cls-2" d="M842.67,413.31a10.05,10.05,0,1,1-10-9.57A9.82,9.82,0,0,1,842.67,413.31Z" transform="translate(-627.09 -173.5)"/><path class="cls-2" d="M842.67,453a10.05,10.05,0,1,1-10-9.57A9.82,9.82,0,0,1,842.67,453Z" transform="translate(-627.09 -173.5)"/><path d="M963.23,318h.11a4.41,4.41,0,0,0,.52,0,10.34,10.34,0,0,1,10.37,10.19,4.68,4.68,0,0,0,9.35,0A19.49,19.49,0,0,0,968,309.3v-5.68a2.18,2.18,0,0,0-.69-1.59c-4-3.57-8.66-.87-8.66,2.89v4.58a19.33,19.33,0,0,0-14.51,21.18,19.64,19.64,0,0,0,19.62,16.81c8,0,13.84,8.69,8.22,16.88a4.92,4.92,0,0,1-1.36,1.33c-8.75,5.72-18.06-.76-17.25-9a2.2,2.2,0,0,0-.71-1.85c-4-3.63-8.69-.93-8.69,2.85a19.44,19.44,0,0,0,14.68,18.66v6.3a2.1,2.1,0,0,0,.69,1.58c4,3.58,8.66.88,8.66-2.88v-4.8a19.37,19.37,0,0,0,15.44-20.94,19.62,19.62,0,0,0-19.68-17.24,10.18,10.18,0,0,1-.56-20.35Z" transform="translate(-627.09 -173.5)"/><path d="M964.39,278a63.37,63.37,0,0,0-38.8,13,66.94,66.94,0,0,0-21.78,29.78H790a4.78,4.78,0,0,0-4.57,4.77l-1.07,160.23h-32.2a4.7,4.7,0,0,0-4.68,4.68v20a36,36,0,0,0,34.1,35.76v.1H922.92v-.13c1.13,0,1.64.13,2.31.13h.1a35.77,35.77,0,0,0,35.54-35.87V407.59c1.13.06,2.34.1,3.51.1,35.53,0,64.33-29,64.34-64.84S999.92,278,964.39,278ZM756.26,510.11V494.56H888.82V510c0,10.58,4.81,20,12.2,26.87H783.11A26.93,26.93,0,0,1,756.26,510.11Zm168.59,26.8H925c-.57,0-1.28,0-1.93-.09a26.82,26.82,0,0,1-24.93-26.59V490.09a4.21,4.21,0,0,0-4.36-4.33H793.66l1.05-155.65H901.57a71.2,71.2,0,0,0-1.26,13,68.07,68.07,0,0,0,5.57,26.57H862a4.51,4.51,0,0,0-4.57,4.13,4.4,4.4,0,0,0,4.39,4.67h48.11a64.06,64.06,0,0,0,41.58,28V510.22A26.72,26.72,0,0,1,924.85,536.91Zm39.32-138.1a56.58,56.58,0,0,1-7.47-.5h0a55.68,55.68,0,1,1,7.48.5Z" transform="translate(-627.09 -173.5)"/><path d="M832.63,399.18a14.15,14.15,0,1,0,14.6,14.13A14.39,14.39,0,0,0,832.63,399.18Zm0,19.15a5,5,0,1,1,5.47-5A5.27,5.27,0,0,1,832.63,418.33Z" transform="translate(-627.09 -173.5)"/><path d="M922.74,408.76H862.06a4.68,4.68,0,0,0-.14,9.35h60.67a4.68,4.68,0,0,0,.15-9.35Z" transform="translate(-627.09 -173.5)"/><path d="M832.63,359.51a14.15,14.15,0,1,0,14.6,14.15A14.4,14.4,0,0,0,832.63,359.51Zm0,19.16a5,5,0,1,1,5.47-5A5.27,5.27,0,0,1,832.63,378.67Z" transform="translate(-627.09 -173.5)"/><path d="M832.63,438.83A14.15,14.15,0,1,0,847.23,453,14.4,14.4,0,0,0,832.63,438.83Zm0,19.15a5,5,0,1,1,5.47-5A5.26,5.26,0,0,1,832.63,458Z" transform="translate(-627.09 -173.5)"/><path d="M922.74,448.36H862.06a4.68,4.68,0,0,0-.14,9.35h60.67a4.68,4.68,0,0,0,.15-9.35Z" transform="translate(-627.09 -173.5)"/></svg>