<svg id="Layer_1" data-name="Layer 1" xmlns="http://www.w3.org/2000/svg" viewBox="0 0 500 500"><defs><style>.cls-1{fill:#fff;}.cls-2{fill:#ae1111;}.cls-3{fill:#ffee0b;}</style></defs><title>order</title><rect class="cls-1" width="500" height="500"/><path class="cls-1" d="M1511.09,502.92l-33.44,37.66H1352.29a8.4,8.4,0,0,1-8.37-8.37V306.28a8.4,8.4,0,0,1,8.37-8.37h150.43a8.4,8.4,0,0,1,8.37,8.37Z" transform="translate(-1177.75 -173.5)"/><path class="cls-2" d="M1406.67,318.5h41.67v8.34h-41.67Z" transform="translate(-1177.75 -173.5)"/><path class="cls-3" d="M1368.92,344h29.42v16.66h-29.42Z" transform="translate(-1177.75 -173.5)"/><path class="cls-2" d="M1410.59,347.92h37.75v8.33h-37.75Z" transform="translate(-1177.75 -173.5)"/><path class="cls-3" d="M1368.92,377.33h29.42V394h-29.42Z" transform="translate(-1177.75 -173.5)"/><path class="cls-2" d="M1410.59,381.25h37.75v8.34h-37.75Z" transform="translate(-1177.75 -173.5)"/><path class="cls-3" d="M1368.92,410.67h29.42v16.66h-29.42Z" transform="translate(-1177.75 -173.5)"/><path class="cls-2" d="M1410.59,415.08h37.75v8.33h-37.75Z" transform="translate(-1177.75 -173.5)"/><path class="cls-3" d="M1368.92,444h29.42v16.67h-29.42Z" transform="translate(-1177.75 -173.5)"/><path class="cls-2" d="M1410.59,448.41h37.75v8.34h-37.75Z" transform="translate(-1177.75 -173.5)"/><path class="cls-2" d="M1365,473.41h125.5v8.34H1365Z" transform="translate(-1177.75 -173.5)"/><path class="cls-2" d="M1365,490.08h29.41v8.34H1365Z" transform="translate(-1177.75 -173.5)"/><path class="cls-2" d="M1406.67,490.08h46.08v8.34h-46.08Z" transform="translate(-1177.75 -173.5)"/><path class="cls-2" d="M1456.67,347.92h12.75v8.33h-12.75Z" transform="translate(-1177.75 -173.5)"/><path class="cls-2" d="M1477.75,347.92h12.75v8.33h-12.75Z" transform="translate(-1177.75 -173.5)"/><path class="cls-2" d="M1456.67,381.25h12.75v8.34h-12.75Z" transform="translate(-1177.75 -173.5)"/><path class="cls-2" d="M1477.75,381.25h12.75v8.34h-12.75Z" transform="translate(-1177.75 -173.5)"/><path class="cls-2" d="M1456.67,415.08h12.75v8.33h-12.75Z" transform="translate(-1177.75 -173.5)"/><path class="cls-2" d="M1477.75,415.08h12.75v8.33h-12.75Z" transform="translate(-1177.75 -173.5)"/><path class="cls-2" d="M1456.67,448.41h12.75v8.34h-12.75Z" transform="translate(-1177.75 -173.5)"/><path class="cls-2" d="M1477.75,448.41h12.75v8.34h-12.75Z" transform="translate(-1177.75 -173.5)"/><path class="cls-2" d="M1477.75,511.19v29.29l33.47-37.65h-25.1A8.39,8.39,0,0,0,1477.75,511.19Z" transform="translate(-1177.75 -173.5)"/><path d="M1406.67,318.5h41.67v8.34h-41.67Z" transform="translate(-1177.75 -173.5)"/><path d="M1402.75,339.58H1365v25h37.75Zm-8.34,16.67h-21.07v-8.33h21.07Z" transform="translate(-1177.75 -173.5)"/><path d="M1410.59,347.92h37.75v8.33h-37.75Z" transform="translate(-1177.75 -173.5)"/><path d="M1402.75,372.92H1365v25h37.75Zm-8.34,16.67h-21.07v-8.34h21.07Z" transform="translate(-1177.75 -173.5)"/><path d="M1410.59,381.25h37.75v8.34h-37.75Z" transform="translate(-1177.75 -173.5)"/><path d="M1402.75,406.74H1365v25h37.75Zm-8.34,16.67h-21.07v-8.33h21.07Z" transform="translate(-1177.75 -173.5)"/><path d="M1410.59,415.08h37.75v8.33h-37.75Z" transform="translate(-1177.75 -173.5)"/><path d="M1402.75,440.08H1365v25h37.75Zm-8.34,16.67h-21.07v-8.34h21.07Z" transform="translate(-1177.75 -173.5)"/><path d="M1410.59,448.41h37.75v8.34h-37.75Z" transform="translate(-1177.75 -173.5)"/><path d="M1365,473.41h125.5v8.34H1365Z" transform="translate(-1177.75 -173.5)"/><path d="M1365,490.08h29.41v8.34H1365Z" transform="translate(-1177.75 -173.5)"/><path d="M1406.67,490.08h46.08v8.34h-46.08Z" transform="translate(-1177.75 -173.5)"/><path d="M1456.67,347.92h12.75v8.33h-12.75Z" transform="translate(-1177.75 -173.5)"/><path d="M1477.75,347.92h12.75v8.33h-12.75Z" transform="translate(-1177.75 -173.5)"/><path d="M1456.67,381.25h12.75v8.34h-12.75Z" transform="translate(-1177.75 -173.5)"/><path d="M1477.75,381.25h12.75v8.34h-12.75Z" transform="translate(-1177.75 -173.5)"/><path d="M1456.67,415.08h12.75v8.33h-12.75Z" transform="translate(-1177.75 -173.5)"/><path d="M1477.75,415.08h12.75v8.33h-12.75Z" transform="translate(-1177.75 -173.5)"/><path d="M1456.67,448.41h12.75v8.34h-12.75Z" transform="translate(-1177.75 -173.5)"/><path d="M1477.75,448.41h12.75v8.34h-12.75Z" transform="translate(-1177.75 -173.5)"/><path d="M1503,293.5h-150.4A12.55,12.55,0,0,0,1340,306.05V532a12.55,12.55,0,0,0,12.55,12.55h127l35.94-40.16V306.05A12.55,12.55,0,0,0,1503,293.5Zm4.22,207.4-25,28v-18a4.19,4.19,0,0,1,4.19-4.18h8.07v-8.33h-8.53A12.55,12.55,0,0,0,1473.34,511v25.19H1352.52a4.19,4.19,0,0,1-4.19-4.18V306a4.19,4.19,0,0,1,4.19-4.18H1503a4.19,4.19,0,0,1,4.19,4.18Z" transform="translate(-1177.75 -173.5)"/></svg>