<svg id="Layer_1" data-name="Layer 1" xmlns="http://www.w3.org/2000/svg" viewBox="0 0 500 500"><defs><style>.cls-1{fill:#fff;}.cls-2{fill:#fc0;}.cls-3{fill:#9a0000;}</style></defs><title>unicorny</title><rect class="cls-1" width="500" height="500"/><path d="M266.44,363.43c2.58.35,5.14.52,7.69.7s5.09.29,7.63.43l1.9.08a13.25,13.25,0,0,1,1.89.14c.61.11,1.21.32,1.82.46s1.23.25,1.84.37c2.46.47,4.93.92,7.4,1.32,4.94.81,9.92,1.52,14.82,1.93l1,.09c.4,0,.8.09,1.19.15a18.63,18.63,0,0,1,2.29.53,25.49,25.49,0,0,1,4.09,1.65c2.53,1.27,4.7,2.7,6.78,3.88a32.69,32.69,0,0,0,3.05,1.56l.75.31c.22.08.44.16.68.23a13.6,13.6,0,0,0,1.5.39c1.07.22,2.3.38,3.72.65a15.57,15.57,0,0,1,4.62,1.61,13.07,13.07,0,0,1,3.9,3.37,25.48,25.48,0,0,1,2.4,3.73c1.32,2.49,2.26,4.87,3.32,6.9a23.81,23.81,0,0,0,3.84,5.39,23,23,0,0,0,5.19,4.17,5.86,5.86,0,0,1,.74.41,8.27,8.27,0,0,1,.64.56c.43.4.87.77,1.33,1.14a29.58,29.58,0,0,0,2.93,2.07,25.73,25.73,0,0,0,3.28,1.77,30.6,30.6,0,0,0,3.62,1.42,22.62,22.62,0,0,1-4,.74,28.39,28.39,0,0,1-4.13.06,28.9,28.9,0,0,1-4.2-.6c-.69-.16-1.39-.34-2.08-.55a4.65,4.65,0,0,1-1.92-.93,35.5,35.5,0,0,1-6.58-5.41,30.56,30.56,0,0,1-5-7c-1.29-2.48-2.22-4.84-3.29-6.83a17.5,17.5,0,0,0-1.7-2.67,5.82,5.82,0,0,0-1.81-1.59,8.53,8.53,0,0,0-2.55-.85c-1.07-.21-2.36-.38-3.77-.67a21.26,21.26,0,0,1-2.19-.55l-1.11-.39-1-.42a37.16,37.16,0,0,1-3.73-1.91c-2.32-1.32-4.41-2.68-6.43-3.69a19.36,19.36,0,0,0-3-1.2,13,13,0,0,0-1.41-.33l-.7-.09-.91-.08c-5.22-.44-10.31-1.17-15.38-2-2.54-.41-5.07-.87-7.59-1.35l-1.9-.37c-.63-.1-1.28-.15-1.91-.29a12.47,12.47,0,0,1-1.83-.65l-1.82-.73c-2.41-1-4.81-2-7.16-3.2A56.61,56.61,0,0,1,266.44,363.43Z" transform="translate(-65.5 -173.5)"/><path d="M203.38,563l1.48-5.21c.1-.38.18-.67.24-.91a11.36,11.36,0,0,1,.43-1.36l.78-1.92c1.38-3.39,2.81-6.9,4.29-10.34a5.6,5.6,0,0,1,4.59-3.46c2.21-.07,4.09-1.15,6.71-2.79a22.42,22.42,0,0,1,4.75-2.06,18.69,18.69,0,0,0,3-1.18,5.06,5.06,0,0,0,2-1.83c.57-1.69,1.09-3.41,1.6-5.15a13.28,13.28,0,0,1-9.52,5.92c-2.93.44-5.91,1-8.8,1.47-2.49.44-5.07.9-7.63,1.3-1.08.17-3.81.4-5.76-1.13-2.43-1.9-4.75-3.9-7.2-6-.9-.78-1.81-1.57-2.77-2.38l-3.7-3.17,4.16-2.54c.53-.32,1-.63,1.46-.91,1-.62,1.89-1.2,2.88-1.72l1-.52c2.41-1.27,4.91-2.58,7.53-3.69a8.2,8.2,0,0,1,6.27.1,18.22,18.22,0,0,1,3,1.83c1-.47,2-.91,2.92-1.36.54-.26,1.06-.48,1.56-.68a8.12,8.12,0,0,0,1.78-.88l1.47-1.57a76,76,0,0,0,8.38-10c5.23-8,12.68-13.49,22.78-16.75a46.73,46.73,0,0,0,4.38-1.77c.83-.37,1.68-.75,2.56-1.11v0c-.52-10.09,1.17-18.84,5.18-26.74l.1-.18a63.66,63.66,0,0,0-8,4c-6.78,4.18-12.29,9.86-18.12,15.86q-1.73,1.79-3.47,3.56c-.61.61-1.22,1.23-1.82,1.85-3,3-6.07,6.17-9.39,9-4.3,3.73-9.18,4.22-13.75,1.39l-2.09-1.3-.62.61-1.27,1.24-2.19,2.09-3.89-3a48.76,48.76,0,0,0-3.73,5.8c-.87,1.48-1.76,3-2.75,4.5l-4.37,6.5-2-7.57a24.2,24.2,0,0,1-.8-7.73l-3.14-1.84-6.43,6.37,2.59-7.16-1-7.09a19.72,19.72,0,0,1,.45-8.05l-3-3-4.19,2.48L177.82,462c3.75-7.4,9.64-16.09,21.93-17.54,3.24-.38,6.65-1.92,9.6-3.33,3.58-1.71,7.15-3.73,10.61-5.69,1.28-.73,2.57-1.46,3.86-2.17,11.38-6.32,21.87-8.54,32.06-6.79,6.27,1.08,12.48,2.66,18.48,4.19,2.41.61,4.81,1.22,7.22,1.8a6.2,6.2,0,0,1,2,.93l.07,0a5.31,5.31,0,0,0,1.23.17c1.88-.49,3.79-1,5.69-1.54l-7.85-1,2.26-3.88-11.21-2,5.27-3.25-14.52-3.33,3-1.21-7.67-.73,6.52-4.77-12.81-3.34,7.81-3.38c-1.07-.35-2.2-.63-3.4-.94l-3.55-.91,0-6.75.45-.06L240.15,389l4.63-.16-11.95-4.75,14.95-.53L237.1,375.7l6.33-.22-9.19-6.16,7.7-1.66-1.06-1a7.1,7.1,0,0,1-1.72-2.69,3.62,3.62,0,0,0-.2-.45l-2.12-4.1,4.51-1c.18,0,.36-.11.54-.16a7.18,7.18,0,0,1,3.46-.4c1.25.21,2.47.5,3.62.81l-.11-.17a6.75,6.75,0,0,1-1-3.11c0-.16,0-.32-.07-.47L247,350.8l4.27-.07a3.75,3.75,0,0,0,.45,0,6.1,6.1,0,0,1,3.65.43l1.38.68a39,39,0,0,1,7,4.09,33.46,33.46,0,0,0,7,4.3l-8-9.14-.4-.15.17-.12-.67-.77,1.31.33,6-4.09-6.61-10.61,5.74,1.85-6.46-9.62,7.68,1.51-.57-1.17a5.79,5.79,0,0,1,.28-5.21,3.81,3.81,0,0,1,2.41-1.75,5.86,5.86,0,0,1,4.19.64c1.14.71,2.17,1.39,3.12,2.05a11.71,11.71,0,0,1,.27-2.66,7.81,7.81,0,0,0,.14-.82l.62-5.33,4.65,2.67c.22.12.45.22.68.33a8.36,8.36,0,0,1,3.06,2.13,93.49,93.49,0,0,1,6,7.88C302.32,340,310,347.35,319.14,352a19.27,19.27,0,0,1,4.33,2.9c6.19,5.74,13.73,9.92,23.73,13.17a10.92,10.92,0,0,1,5.87,4.51,66,66,0,0,1,5.07,10.77A64.15,64.15,0,0,1,360,390c.4,1.65.77,3.2,1.24,4.71a12.56,12.56,0,0,0,4.17,5.92l2.14-1.21.05-.11a8.4,8.4,0,0,1-4.82-6l-.4-1.75a8,8,0,0,1-.7-.49,6.75,6.75,0,0,1-2.44-4.78l-.5-5.09,4.94,1.33c1.71.46,4.15-.2,6.36-1.42a11.51,11.51,0,0,1-3.64-1.55,10.09,10.09,0,0,1-4.5-7.25l-.76-5.68,5.42,1.87c2.8,1,5.11,1,7.83-1.44-2.26-2.82-4.22-6.65-2.52-12l1.57-5,2.62,2.13-1.7-3.52,7.43,2a34.9,34.9,0,0,0,12,1.33c-1.54-3-1.58-4.6-.29-7.79l1.63-4,3.6,2.38c.69.46,1.34.93,2,1.39a19.88,19.88,0,0,0,3.81,2.36c.75-2,1.82-3.69,3.87-4.28a5.27,5.27,0,0,1,4.19.69l.65-1.25,8.26,5c.41-.78.81-1.52,1.23-2.25,1.57-2.77,3.66-3.21,4.77-3.22h.06c1.13,0,3.2.42,4.84,3.13.51.83.95,1.67,1.38,2.51l20.39-15,4.69,5.06-16,24.13a7.61,7.61,0,0,1,1.4,2,14.23,14.23,0,0,1,1,4.49c0,.24.05.49.08.73a9.11,9.11,0,0,1,0,1.89c0,.11,0,.24,0,.34,2,4.94,5.45,9.07,9.08,13.44l.37.44a56,56,0,0,1,6.87,10.9c1.95,3.9,1,8.19-2.62,11.79a6.63,6.63,0,0,1-7.29,1.64,7.13,7.13,0,0,1-3.21,2.17,6.73,6.73,0,0,1-5.45-.71c-2.37-1.34-5.77-3.48-8-6.56-3-4.27-6.31-5.87-10.95-5.34a2.65,2.65,0,0,0-.38.07,4.2,4.2,0,0,0-.18.53c-1.12,4.06-.69,8.29,1.32,12.94a149.9,149.9,0,0,1,9,26.38,74.17,74.17,0,0,0,4.54,13.63A37.43,37.43,0,0,1,442,464.44c1.17,0,2.34,0,3.48,0a81.9,81.9,0,0,0,13.95-.8c10.31-1.82,18.26.73,24.33,7.78,3.95,4.59,7.84,9.33,11.6,13.92q2.83,3.46,5.68,6.91c.34.4.66.83,1,1.26a9.33,9.33,0,0,0,1.74,1.94c7,4.58,6.85,11.87,6.73,16.7l-.07,3-3,.38-.73.1a12.58,12.58,0,0,1-1.94.2h-1.1a43.81,43.81,0,0,1-4.83-.11c-5.48-.53-7.5-2.26-9-7.73-.09-.35-.25-.93-.4-1.35a11.05,11.05,0,0,1-5-5.43l-.42-.77c-1.13-2.05-2.15-4.15-3.14-6.19-.59-1.21-1.18-2.42-1.8-3.62-2.19-4.3-9.33-7.68-13.15-6.24a36.34,36.34,0,0,0-4.45,2.07,37.55,37.55,0,0,1,6.71,5.5,154,154,0,0,0,13.36,11.41l1.53,1.14c2.84,2.09,6.05,4.45,8.13,8.3a5.64,5.64,0,0,0,1.93,1.77c6.82,4.19,7,10.71,7.12,16.47l.09,3.9-3.5.12c-.88,0-1.75.09-2.59.14a43.55,43.55,0,0,1-5.95.09c-6.15-.46-7.69-2.26-9.48-7.8a6.85,6.85,0,0,0-1.38-2.24,8.16,8.16,0,0,0-1.07-.87,12.51,12.51,0,0,1-2.27-2c-2-2.38-3.94-4.88-5.78-7.3l-.41-.54a26.5,26.5,0,0,0-13.63-9.51,3.37,3.37,0,0,0-.62-.13c-1.91.54-3.85,1.15-5.74,1.74-3.07.95-6.25,1.95-9.48,2.74l-3.36.86c-6.05,1.57-12.3,3.19-19,2.81-3.88-.22-9.19-.52-13.35-4.07-.69-.59-1.11-.71-2.76-.48-26.15,3.64-47.41,3.35-66.89-.92l-2-.44c-5.5-1.18-11.16-2.4-16.55-5l-2.24,1.78a64.34,64.34,0,0,1-9.44,6.63c-11.49,6.2-25.45,12.54-41.82,12.54h0a2.37,2.37,0,0,0-1,.54A153.79,153.79,0,0,0,250.46,536a33.91,33.91,0,0,0-3.51,7.73c-1.76,5.22-5,8.34-9.85,9.54a72.4,72.4,0,0,0-7.27,2.12,8.32,8.32,0,0,0-2.84,1.5c-4.46,4.31-9.72,4.68-14.36,5-1.35.09-2.62.18-3.88.36Zm13.41-16.24c-1.12,2.64-2.23,5.34-3.31,8,3.47-.27,6.28-.7,8.59-2.94a14.63,14.63,0,0,1,5.37-3.07,81,81,0,0,1,8-2.33c2.46-.61,3.86-2,4.84-4.93a39.88,39.88,0,0,1,4.33-9.39,156.47,156.47,0,0,1,9.86-12.93,9,9,0,0,1,6.48-3.11h0c14.8,0,27.75-5.9,38.46-11.68a58.85,58.85,0,0,0,8.39-5.95c1.35-1.07,2.75-2.18,4.2-3.26l1.85-1.37,2,1.14c5.06,2.87,10.69,4.08,16.64,5.36l2.05.45c18.65,4.09,39.11,4.35,64.41.82a9.7,9.7,0,0,1,8.31,2.11c2.19,1.86,5.18,2.16,9.17,2.39,5.64.32,11.09-1.1,16.86-2.6,1.15-.29,2.29-.59,3.44-.87,3-.75,6.1-1.71,9.08-2.64,2-.61,4-1.24,6-1.82a7.94,7.94,0,0,1,4.54.22,33.81,33.81,0,0,1,17.16,12l.4.54c1.78,2.34,3.62,4.76,5.53,7a7,7,0,0,0,1.08.89,12.55,12.55,0,0,1,2.18,1.89,13.9,13.9,0,0,1,2.81,4.74,15.48,15.48,0,0,0,1,2.6,9.56,9.56,0,0,0,2.27.33,33.75,33.75,0,0,0,4.24-.06c-.23-3.67-.92-5.92-3.63-7.58A12.44,12.44,0,0,1,485,516.2c-1.33-2.45-3.54-4.08-6.1-6-.55-.4-1.09-.8-1.63-1.22a159.71,159.71,0,0,1-14-11.93c-2.92-2.82-5.45-5.25-8.92-5.86a6.07,6.07,0,0,1-1.72-.62l-.14-.07a3.6,3.6,0,0,1-2-2.77,3.58,3.58,0,0,0-.07-.37l-.58-2.64,2.4-1.25c1-.54,2.06-1.12,3.15-1.73a60.54,60.54,0,0,1,8.07-4c7.2-2.72,18.08,2.06,21.95,9.64.64,1.24,1.25,2.5,1.86,3.75,1,2,1.92,4,3,5.84l.49.92c.83,1.58,1.18,2.15,2,2.42,2.63.89,3.43,3.81,4,5.74a10.21,10.21,0,0,0,.78,2.24,8.53,8.53,0,0,0,2.09.36,36.44,36.44,0,0,0,3.95.08c-.15-3.69-1-5.77-3.52-7.43a14.4,14.4,0,0,1-3.52-3.6c-.26-.35-.52-.69-.79-1-1.91-2.3-3.8-4.62-5.7-6.93-3.73-4.56-7.59-9.27-11.49-13.8-4.42-5.13-9.89-6.81-17.74-5.43a88,88,0,0,1-15.16.91c-2.15,0-4.38,0-6.55.09l-3.28.11-.36-3.26c-.05-.45-.1-.86-.14-1.23-.1-.79-.18-1.47-.23-2.19a30.28,30.28,0,0,0-3-10.42,81,81,0,0,1-5-14.93,144.06,144.06,0,0,0-8.61-25.15c-2.64-6.1-3.19-12-1.65-17.63,1-3.47,3.11-5.35,6.57-5.75,7.26-.82,13,1.88,17.53,8.27a17.89,17.89,0,0,0,5.6,4.46,6.67,6.67,0,0,0,.77-1.28l1.57-3.33,3.78,2a13,13,0,0,0,1.43.69c2.06-2,1.5-3.16,1.29-3.59a49.47,49.47,0,0,0-6-9.55l-.37-.44c-3.89-4.68-7.91-9.52-10.33-15.63a6.92,6.92,0,0,1-.34-3.2c0-.18,0-.43,0-.52,0-.25-.07-.53-.1-.81a8.5,8.5,0,0,0-.43-2.32,9.61,9.61,0,0,0-.85-.84c-.37-.34-.79-.73-1.23-1.2l-1.94-2,8.18-12.32-10.73,7.87-1.88-3.71c-.36-.69-.69-1.37-1-2l-.73-1.48-.5,1L426,353.14l-1.75,3.31-8.23-5-1.29,2.5-3.41-3.17-.61-.56c-.09.29-.18.62-.28,1l-.67,2.46-2.55.14a12,12,0,0,1-4.58-.65l2.16,3.63L400.28,358a34.33,34.33,0,0,1-13.14.89l2.37,4.92-5.51.1a11.68,11.68,0,0,1-3.36-.43c.33.37.7.76,1.11,1.19l2.12,2.22L382,369.33a21.46,21.46,0,0,1-5,4.7l.42-.11L384,372l-2.27,6.48a15.74,15.74,0,0,1-5.17,6.78l2.88-.33-2.36,5.57a13.22,13.22,0,0,1-2.28,3.71l2.64.68-.88,1.91,2.29,4.39L374,404l1.37,1.18L371.73,413l-3.56-2.1c-5.32-3.15-11.35-6.72-13.66-14.09-.54-1.73-1-3.47-1.37-5.15a54.54,54.54,0,0,0-1.66-5.94,59.28,59.28,0,0,0-4.53-9.62A4.16,4.16,0,0,0,345,374.8c-10.85-3.53-19.47-8.34-26.35-14.71a12.29,12.29,0,0,0-2.72-1.78c-10.33-5.23-18.79-13.32-27.43-26.23l-.74-1.08c.11.43.22.88.32,1.33L290.65,343l-8.31-7.19-1.84-1.61-1-.87,1.07,2.1a13.75,13.75,0,0,1,.56,1.3c.09.22.18.47.3.77l4.49,11-5.87-4-2.29,2.18,3.71,6L280,353.88l2.65,2.63-2.9,3.25,8.53,9.77-8-.15c-7.54-.14-14.18-2.66-20.9-7.91l0,0,1.29,1.85,6.08,8.8-10.13-3.44-2.33-.8-2.23-.77,1.81,1.55a14.77,14.77,0,0,1,2.06,2l6,7.41-4.44-.81L256.12,381l5.78,4.27-1.27,2.31,3.63,1.45-1,3.83,7.51,3.82-2.07,4.11a16.63,16.63,0,0,1,3,2.43l3.64,3.68-.09,0,7.36,1.92-3.53,2.58,5.12.49-.07,4,6.9,1.58-.32,3.55,5.48,1-2,3.39,7.89,1-.59,1.44,5.54.09,1.3,6.48-3.67,1.06-1.24.36-4.13,1.16c-4.15,1.18-8.45,2.4-12.7,3.52a10.06,10.06,0,0,1-4.66-.15,6.27,6.27,0,0,1-2.2-1l-.1-.06c-2.36-.57-4.75-1.18-7.05-1.77-5.88-1.49-11.95-3-17.94-4.07-8.66-1.49-17.37.42-27.43,6l-3.8,2.14c-3.56,2-7.25,4.11-11,5.93-3.46,1.65-7.51,3.45-11.82,4-.66.08-1.31.19-1.93.32l-7.16,9.12,6.39-3.06-8.52,11.47c-.18.24-.36.49-.52.73l2.7,1.72,13-12.91-8.46,17.86,5.17-4-4.85,11a19.16,19.16,0,0,1,8.33-5.41l7-2.27-1,2.57a12.87,12.87,0,0,1,5.43-.73l2.65.2.55,2.6a7,7,0,0,1,0,2.85l.37-.31c3.1-2.68,6.09-5.71,9-8.65.61-.62,1.22-1.25,1.84-1.87q1.73-1.74,3.43-3.51c5.87-6.05,11.94-12.31,19.48-17a84.48,84.48,0,0,1,11.06-5.44l2.91-1.27a9.88,9.88,0,0,1,3.75-.69c.45,0,.91,0,1.38-.09l7.18-.77-3.79,6.15q-.9,1.44-1.74,2.73c-1.12,1.73-2.08,3.23-2.87,4.77-3.43,6.77-4.88,14.35-4.42,23.17.18,3.37-1.18,5.66-4,6.79-.9.36-1.79.75-2.72,1.17a51.71,51.71,0,0,1-5.08,2c-8.62,2.78-14.67,7.19-19,13.89a82.79,82.79,0,0,1-9.15,11l-1.44,1.54a11.52,11.52,0,0,1-4.29,2.62c-.42.17-.82.33-1.14.49-1.06.51-2.12,1-3.3,1.54l-1.67.76-1.84.86-1.67-1.16c-.31-.22-.65-.48-1-.76a14.59,14.59,0,0,0-2.5-1.65,1.35,1.35,0,0,0-.56,0c-2.31,1-4.57,2.15-7,3.41l-.78.41c1.94,1.68,3.81,3.27,5.7,4.77a3.79,3.79,0,0,0,.62,0c2.5-.39,5-.84,7.5-1.27,2.93-.52,6-1.05,9-1.5a6.23,6.23,0,0,0,4.9-3.21c2.69-4.54,6.82-7.23,10.5-9.26l7.39-4.07-2.27,8.12c-.45,1.59-.87,3.18-1.3,4.74-1.13,4.2-2.2,8.17-3.55,12.17-1.09,3.23-4.35,5.23-5.32,5.76a25.71,25.71,0,0,1-4.13,1.69,15.76,15.76,0,0,0-3.25,1.34C223.3,544.46,220.42,546.26,216.79,546.74Zm-1.36.11Zm-10-18.36Zm250.08-44.35h0Zm-175.94-45ZM446.73,404Zm7.15-1.94Zm-30.22-3.79Zm2.55-50.61Z" transform="translate(-65.5 -173.5)"/><circle class="cls-2" cx="120.78" cy="171.27" r="55.89"/><path d="M186.28,404.53a59.77,59.77,0,1,1,59.77-59.76A59.83,59.83,0,0,1,186.28,404.53Zm0-111.77a52,52,0,1,0,52,52A52.07,52.07,0,0,0,186.28,292.76Z" transform="translate(-65.5 -173.5)"/><path class="cls-3" d="M215,331.59c0,15.88-28.74,55.09-28.74,55.09s-28.74-39.21-28.74-55.09a28.74,28.74,0,0,1,57.48,0Z" transform="translate(-65.5 -173.5)"/><path d="M186.28,393.25,183.15,389c-3-4.12-29.49-40.72-29.49-57.39a32.62,32.62,0,0,1,65.24,0c0,16.67-26.47,53.27-29.49,57.39Zm0-86.52a24.89,24.89,0,0,0-24.86,24.86c0,10.61,15.82,35.47,24.86,48.41,9-12.94,24.86-37.81,24.86-48.41A24.89,24.89,0,0,0,186.28,306.73Z" transform="translate(-65.5 -173.5)"/><circle class="cls-1" cx="120.78" cy="158.09" r="9.98"/><path d="M186.28,345.45a13.86,13.86,0,1,1,13.86-13.86A13.87,13.87,0,0,1,186.28,345.45Zm0-19.95a6.1,6.1,0,1,0,6.1,6.09A6.1,6.1,0,0,0,186.28,325.5Z" transform="translate(-65.5 -173.5)"/><path d="M149.49,454.42H118.37a3.54,3.54,0,1,1,0-7.08h31.12a3.54,3.54,0,0,1,0,7.08Z" transform="translate(-65.5 -173.5)"/><path d="M149.49,472.1H128.27a3.54,3.54,0,1,1,0-7.07h21.22a3.54,3.54,0,1,1,0,7.07Z" transform="translate(-65.5 -173.5)"/><path d="M149.49,489.79H138.88a3.54,3.54,0,0,1,0-7.08h10.61a3.54,3.54,0,0,1,0,7.08Z" transform="translate(-65.5 -173.5)"/></svg>