<svg id="Layer_1" data-name="Layer 1" xmlns="http://www.w3.org/2000/svg" viewBox="0 0 782.6 783.41"><defs><style>.cls-1{fill:#fff;}</style></defs><title>logo</title><path class="cls-1" d="M860.28,402.3c3.32,9.81,8.92,17.95,12.92,28.07l-9,13.05-33.85,4c-4.83-4.83-9.83-9.66-14.65-14.67-7.87-8.17-15.45-16.64-23.51-24.62a18.65,18.65,0,0,1-5.95-15.27,42.78,42.78,0,0,0-.66-6.53c-5.16.3-10,.31-14.72.92-18.41,2.35-36.81,4.68-55.43,4.59-3.13,0-6.27,1.54-9.74,2.47-1.18,6-2.3,11.21-3.24,16.49-.72,4.06-1.27,8.15-1.8,12.24a9.77,9.77,0,0,1-6.8,8.55c-4.72,1.77-9.39,2.6-14.4,1.39s-10-2.11-16-3.36c-.8,5.26-1.51,10-2.29,15.06l-10.72,4.5c-5.09-7.49-10-14.81-14.81-21.83l13.93-26.88-8.72-2L626,375.82c4.68-9.5,9.42-19.12,14.5-29.45l-9.13-2.09-15.85-24.75c5.22-10.78,10.23-21.15,15.55-32.15L621,285.27l-16.64-26.09,20-27.31H742.61c-2.58-16.8-5.21-34-7.82-51-12-15.77-23.8-31.33-36-47.46l61.18-71.82,32.74,34.09-16,18.3-18.15-9.71c-10,8.76-17.77,19.24-27.19,29.37l25.22,28.27,21.19-3.15c-1.45,24.91-5,49.05-5.91,74.22,3.62.31,6.34.71,9.07.74,12.66.11,25.33,0,38,.19,24.5.38,49,.92,73.52,1.42,1.27,0,2.54.24,4.86.46L909,263.17l-16.75,25.22-10.39,2.28c4.79,11.16,9.32,21.73,14.22,33.13-5.31,7.7-10.82,15.71-16.23,23.57l-9.26,1.68,13.58,30L869.81,400.2ZM798,276.79c-25.59-2.93-50.24-4.81-74.55-8.79S675.2,258,650.12,252.59c.32,11.7-3.63,22.83-1.35,34.91,3,.2,5.53.53,8,.5,34.27-.43,68.58,1.76,102.82-1.42q15.74-1.47,31.45-3.12c2.23-.23,4.41-.82,6.87-1.3ZM726,331.61a16.16,16.16,0,0,0,2.35,1.07c22.13,3.84,44.57,3.92,66.89,4.66,20.55.69,41.17-.72,61.75-1.38,2.65-.08,5.26-1.23,8.62-2.08-.84-11.32-1.64-21.93-2.49-33.35-23.35,5.79-45.69,11.88-68.29,16.77s-45.56,6.84-68.83,8.34ZM661.51,367c37.61,3,73.62,5.34,110.54-.27-.29-2.83-.5-4.88-.65-6.4-18.68-1.24-36.46-1.72-54.06-3.77-17.76-2.07-35.34-5.68-53.87-8.77C662.85,353.91,662.26,359.68,661.51,367Zm190,11.71c-16.22.85-50.46,7.29-56.31,10.83l5.9,11.88c9.22,0,18-.49,26.72.14s17.2,2.17,26.09.48c-.46-7.66-.84-14.56-1.33-21.46C852.56,379.9,851.88,379.28,851.53,378.69ZM802.92,615.25c.68-6.19,1.7-11.54,1.77-16.91a35.72,35.72,0,0,1,5.86-19c8.78-14,21.31-22.17,37.68-24.45,2-.29,4.07-.65,6.11-.94,5.74-.82,11.49-1.62,18.72-2.64a6.21,6.21,0,0,0,1.37-3.08c.78-12.46,3.5-24.94.44-38.08-8-.51-14.93,3.12-22.23,3.7s-14.88.85-23.65,1.33l-8.94-5.3c7.21-1.69,12.8-3.62,18.53-4.2a125.65,125.65,0,0,0,28.6-6.54c7.66-2.67,14.6-1.84,21.18,3.14,2.1,1.59,5,2.12,7.81,3.26.75-2,1.18-3.09,1.61-4.23.49,0,1.06-.24,1.44-.06,10.28,4.79,14.56,13.08,12.83,24.3-.43,2.78-.14,5.67-.38,8.49-.51,6.15-1.12,12.29-1.74,18.43-.11,1-.59,2-.63,3-.28,8.2-.16,16.44-.82,24.62-.79,9.73-1.85,19.48-3.56,29.09a65.19,65.19,0,0,0-.69,16.75c4.17,2.81,7.85,1.72,11.26-.27,9.52-5.59,19-11.36,28.39-17.1,1.72-1,3.33-2.27,6-4.15-1.34,8.92-7.23,13-13.27,17.87,6.48,5.6,13.26,9.12,21.1,9.76,5.93.49,12.8-6.15,14-13.47,1.85-11.46,1.13-22.81-5.21-32.94-4.64-7.42-9.91-14.46-15-21.56-7-9.69-7.14-20.09-3.32-30.87a29.46,29.46,0,0,1,3.86-7.58c1.94-2.67,4.06-6.22,6.82-7.1,8.52-2.72,16.48-7.45,25.91-7.27,5.37.11,10.76-.87,16.15-1.23,4.56-.3,9.25-1.23,13.13,1.47l-2.63,8c-9.5,2.92-21.22,4.28-29.07,13.89-3.33,10.25,2.43,17.63,8.32,25,4.51,5.63,9.1,11.2,13.44,17,6.13,8.15,8.5,17.54,8.42,27.64,0,.77,0,1.55,0,2.32.43,23.34-.88,19.7-12.86,35.63-4.11,5.47-9.38,9.67-16.37,11-6.57,1.23-13.12,2.8-19.76,3.32-8.6.68-16.13-2.72-22.79-8.07a40.82,40.82,0,0,0-4.31-3.28,23.23,23.23,0,0,1-10.66-13c-3,1.46-5.57,2.84-8.25,4.07-7.47,3.44-14.87,7-22.49,10.09-2.51,1-5.59.78-8.41.82-4.54.08-7.81-1.93-9.86-6.16-1.41-2.93-3.32-5.62-5.16-8.66-3.61,1.89-6.77,3.11-9.44,5-6.24,4.43-12.66,7-20.45,3.12-2.59,4.46-6.56,4.15-10.32,3.57-9.4-1.47-18.2-4.09-23-13.6-1-2-2.64-3.67-4.38-6-2.78,2.61-4.92,5.26-7.64,7-7.74,5.09-15.58,10.07-23.68,14.54-2.51,1.38-6,1.21-9,1.33-4.85.2-9.72.06-14.73.06L743.11,635l-5.83-2.95-7.88-16.61c-2.91,3-5.79,5.47-8,8.41a50,50,0,0,1-19,15.32c-3.91,1.86-7.76,4.53-11.88,5.11-11.42,1.59-20.67-4.48-25.88-16.72a67.3,67.3,0,0,1-5.7-24c-.63-16-2.31-31.88-2.62-47.84-.2-10.25,1.28-20.54,2-30.82a108.44,108.44,0,0,0,.58-13.1c-.2-3.5-.75-7.25-5.18-10.1-2.17,1.26-5.29,2.22-7.18,4.3C634.27,519.6,623.37,534,621,552.88c-.54,4.32-1.15,8.82-.56,13.07a181.38,181.38,0,0,1,1.41,26.87c-.14,13.65.69,27.32,1.08,41,0,1.28-.15,2.56-.27,4.52-5.15,3.51-9.71,8.66-17.1,7.38-2.46-2.86-4.62-5.38-6.81-7.91l-5.51,1.27c-2.53-6.95-5.07-13.89-7.81-21.43-4.7,2.75-7.54,7.06-11.21,10.44-7.17,6.61-14.22,13.47-22.11,19.12-4,2.85-9.62,3.53-14.62,4.69-3.58.83-6.39-1.09-8.65-4-2.05-2.58-4.36-4.95-6.71-7.58-3.76,2.88-7.44,5-10.13,7.94-4.94,5.48-11,7.46-18.56,7.07l-.75,3.3c-4.12.43-8.43,1.09-12.77,1.3-13.53.64-26.64-11.76-28-23.23-1.05-8.89-3.91-17.6-2.37-26.76,2.81-16.73,11.7-28.94,26.88-36.42,6-3,12.25-5.5,18.47-8a38.29,38.29,0,0,1,6.72-1.49c1.95-.4,3.9-.76,6.51-1.27-.56-14.4-3.1-27.85-7.11-42.21-7.5,2.9-14.24,5.82-21.19,8.13s-14.35,4.1-22.45,6.37l-11.09-3.21c7.36-3.2,13.39-5.78,19.39-8.42,9.2-4.07,18.5-7.94,27.53-12.35,5.95-2.91,11.57-3.79,17.8-1,3.12,1.4,6.54,2.83,11.1,1.17l-3.66-4c.12-.06.49-.46.84-.45,12.57.41,21.63,11.52,21.62,22.11,0,3.81,1.18,7.62,1.65,11.45.58,4.85.87,9.74,1.48,14.59,1.05,8.42,1.94,16.89,3.45,25.23a153.34,153.34,0,0,1,2.74,33.86c-.21,5,.24,9.81,3.85,15,2.18-.35,5.47.1,7.26-1.34,7.81-6.24,16.95-11,22.65-19.82,0-10.21,0-20.5,0-30.79,0-1.78-.66-3.56-.72-5.35-.62-17-1.13-34-1.77-51-.16-4.1-.81-8.19-1-12.3-.17-3.27,0-6.56,0-9.92,13.26-3.49,23.12,1,31.4,10.2,1.16,8.63.83,17.25,5.24,26.48,1.59-2.51,2.66-4,3.54-5.59,4.08-7.44,8-15,12.2-22.37,7.38-12.93,18.59-15.58,34.26-11.41,4.18,1.11,8,3.51,12.09,5.36,5.4,9.38,9.48,18.86,9.22,30-.35,14.46-.43,29,.1,43.41.41,11,1.79,22,3.1,33,.39,3.25,2,6.36,2.88,9,9.22,6.37,11.45,6.33,19.71.15,4.34-3.25,8.73-6.43,13.07-9.67a14.06,14.06,0,0,0,1.62-2v-7.6c0-16.54-.2-33.09.25-49.62.29-10.28,1.75-20.52,2.48-30.79.83-11.77,1.44-23.55,2.2-36.2l-15.65-1.14,7.58-2.8-.35-1.63c-4,.43-7.92.79-11.86,1.31-5.72.76-7.35-.05-10.62-6.16,8.9-4.37,19.29-2.19,28.53-6.23.61-9.07,1.22-18,1.82-26.89l.89,0,2.49,7.4,1.54.07a74.39,74.39,0,0,0,1.53-7.76c.27-2.81.05-5.68.08-8.52,0-3.09,1.16-5.48,4.57-6.78,6.93,3.62,9.84,10.26,11.91,17.15,1.7,5.65,2.34,11.6,3.53,17.41.51,2.49,1.23,4.93,1.94,7.75a42.25,42.25,0,0,0,6.31.72c8.16-.35,16.31-1,24.47-1.31,5.1-.21,10.38-1.16,14.54,1.84l4.43,8.2c-15,6.35-31.41,3.68-47.59,5.78-.42,1.72-1.24,3.41-1.16,5.07.83,17.24,1.91,34.47,2.69,51.71.25,5.65-.19,11.33-.27,17-.06,4.61-.33,9.24,0,13.82.56,8.22,1.55,16.41,2.24,24.62.64,7.7.91,15.44,1.74,23.12,1,9.73,8.41,14,17.16,9.77C792,621.64,797.49,618.26,802.92,615.25ZM873,561c-5.2,2.24-9.22,3.38-12.57,5.54-7.08,4.55-15,8.66-18,17.25a120.55,120.55,0,0,0-4.95,19.36A23.21,23.21,0,0,0,842.3,622c3.11,3.93,6,5.2,10.78,3.57,5-1.73,9.9-4.07,15.23-6.31,1.58-17.18,3.14-33.95,4.65-50.72C873.13,566.57,873,564.56,873,561ZM516.06,628.42c-2.26-18.9-4.41-36.95-6.58-55,0-.2-.29-.42-.49-.55a4.13,4.13,0,0,0-.85-.32c-3.14,2-6.92,3.39-9.46,6-4.94,5.11-10.54,10.27-13.41,16.53-4.6,10-4.34,21.12-.92,31.75,2.14,6.67,6,12,14.12,13.24C505,637.6,511.1,634.1,516.06,628.42Zm446.63-64.65c5.3,17.26,9.71,24.82,16,27.34C976.24,579.64,969.76,571.51,962.69,563.77Zm-150,52.8c-2.77,4.62-1.62,7.72.48,10.35,2.5,3.11,4.63,7,10.49,7.83ZM460.48,644.52c9.57,8.63,9.57,8.63,14.26,8.22L461,638.91C460.81,641.18,460.64,642.85,460.48,644.52Zm307.09-16.13c-2.85-7.43-5.26-11-9.43-14.33C758.79,620.24,759.16,626.14,767.57,628.39ZM382.12,459.52a12.92,12.92,0,0,1,2.57-1.32c11.45-3.08,22.89-6.18,34.38-9.1,7-1.77,14.1-3.09,21.08-4.89,3.86-1,7.17-3.17,8.8-7,1.89-4.45,3.48-9,5.55-14.45-27.85,4.52-54,14.28-80.22,19.91l-12.5-5.37c-4.68,1-6.43,3.24-7,6.65-.11.59-.91,1.05-1.41,1.59l-7.3-3-3.58,3.75c8.16,32.35,16.94,63.11,21.17,94.69l-8.57,6.76c1.76,3.42,3.15,6.14,4.51,8.81l8.58,2.51c.85,3.63,1.87,7.08,2.43,10.6,1.46,9.15,2.34,18.41,4.13,27.49,2.73,13.92,6.14,27.7,9.06,41.58,2.43,11.61,4.58,23.27,6.83,34.91.71,3.66,1.9,7,5.34,8.94,10.09,1.51,13.19,1.18,19.41-2.41-.23-4.53-.5-9.5-.84-16.1,7.77,6.93,4.93,16.63,9.9,23.46l7.58-5.39a26.45,26.45,0,0,0,.22-4.11q-1.49-13.82-3.14-27.62a23.94,23.94,0,0,0-1.41-4.4c-2-5.85-4.28-11.62-5.85-17.58-4.27-16.19-7-32.75-12.18-48.73-2.47-7.59-3.94-15.51-5.76-23.3a42.67,42.67,0,0,1-.51-5.68l26.86-10.24-1.7-5.61c4.75-3.75,10.46-5.81,13.54-11.43-14.26,1.71-28.12,4.89-41.69,8C395.72,525.36,381.19,467.63,382.12,459.52ZM1006,442.37q-2.81-6.12-5.68-12.2a11.73,11.73,0,0,0-1.26-1.81c-1.71-2.41-3.54-4.74-5.11-7.24-3.43-5.48-.9-1.22-4.36-6.67h-.07c-3.84.44-4.05-2.44-8-2.92a12,12,0,0,0-6.47.88c1.58,3.2,3.09,6.43,4.8,9.53,3.31,6,1.24,1.84,4.62,7.79,2.81,5,5.53,10,8.28,15,.87,1.58,1.87,2.94,3.53,3.36,4.17-.69,1.59.05,3.44-2.46l-2.92-7.24c4.15,2.1,4.6,6.93,7.64,9.37.74-1.26,1.42-2.39,2.09-3.51A17.08,17.08,0,0,0,1006,442.37Zm60.18,3.94q1.26-5.55,2.45-11.14a9.15,9.15,0,0,0,0-1.89c0-2.54-.12-5.09.06-7.61.4-5.51,0-1.3.34-6.81l-.06,0c-3.32-1.91-1.84-3.9-4.7-6.45a13.83,13.83,0,0,0-5.68-3.13c-.58,3-1.22,5.92-1.63,8.91-.79,5.77-.06,1.9-.78,7.68-.59,4.83-1.3,9.65-2,14.46a4.84,4.84,0,0,0,.9,4.19c3.74,1.94,1.25.94,4.17.39.5-1.79,1.06-3.76,1.81-6.37,2.11,3.74-.29,7.13.74,10.44l3.69-1.07A12.39,12.39,0,0,0,1066.14,446.31Zm39.13,50q4.43-3.33,8.79-6.74a9.58,9.58,0,0,0,1.21-1.39c1.59-1.9,3.07-3.9,4.78-5.66,3.73-3.87.8-1,4.5-4.88l0-.07c-1.31-3.59,1-4.11.47-7.89a14,14,0,0,0-2.34-6c-2.28,1.85-4.61,3.64-6.78,5.61-4.18,3.8-1.22,1.38-5.37,5.25-3.45,3.22-7,6.37-10.5,9.53a4.7,4.7,0,0,0-1.93,3.72c1.61,3.89.35,1.52,2.9,3l5.34-3.58c-.74,4.17-4.66,5.14-6,8.29l3.45,1.6A10.89,10.89,0,0,0,1105.27,496.29ZM1025.05,527a13.79,13.79,0,0,0-1.26,6,205.09,205.09,0,0,0,1.92,20.75c2.17,13.23,4.83,26.38,4.11,39.9a23.15,23.15,0,0,0,.35,4.62c2.41,15.78,4.63,31.58,7.41,47.29.92,5.23,3.24,10.22,5,15.28.22.61,1.1,1,1.89,1.65l5.45-3c1,1.13,1.74,2.08,2.87,3.45-11.4,25.32-22.81,50.64-33.93,75.35,1.11,3.44,1.87,5.8,2.74,8.46,1.5-.42,2.74-.39,3.34-1,6.55-6.55,13.17-13,16.77-21.91,1.82-4.5,4.46-8.68,6.72-13,2.5-4.78,5.18-9.49,7.45-14.38q10.46-22.44,20.63-45c3.71-8.19,7.18-16.5,10.91-24.68,4.7-10.31,9.21-20.73,14.45-30.76,6-11.5,11.57-23.11,13.86-35.95,1.2-6.67,1.23-13.46-1.09-20.23-5.67,6.21-7.3,14.24-11.24,21s-7.8,14-11.39,21.11c-3.69,7.38-6.93,15-10.54,22.41-3.35,6.88-4.19,15-10.64,22.54-1-9.41-2-17-2.53-24.55-.75-11.56-.52-23.22-1.82-34.71-1.27-11.22-3.75-22.33-6.08-33.41-1-4.74-2.94-5.8-7.75-5.8-1.51,0-3,.27-4.32.39-6.64-7.4-12.27-10.56-18.76-10.68C1028.06,521.15,1026.35,524,1025.05,527Zm-23.48,165.82c-19.33.45-38.67,1.32-58,1.38-15.2,0-30.39-1.06-45.6-1.38-36.08-.74-72.18,1-108.27,0-9.81-.27-19.64-.18-29.45,0-24.25.39-48.5.93-72.75,1.39a35.64,35.64,0,0,1-3.85-.3c-4.1-.36-8.21-1.1-12.3-1-35.1.58-70.2-1.14-105.32,1.14a261.31,261.31,0,0,1-38.42-.65c-23.61-2-47.45-.9-71.14,1.3-3.33.31-6.63.89-9.95,1.38-2.53.37-4.55,1.23-3.79,5.15a52.22,52.22,0,0,0,19.86,3.83c17.79-.47,35.57-1.12,53.36-1.6,5.9-.16,11.81,0,18.6,0,3.55.47,8.09,1.63,12.61,1.56,17.79-.27,35.58-1.38,53.37-1.32,20.35.06,40.67-.45,61.09,1,20.75,1.41,41.74-1.05,62.63-1,24,0,47.94,1.4,71.91,1.35,31.49-.07,63-.91,94.45-1.56,8.75-.18,17.48-1,26.23-1.28a28.06,28.06,0,0,1,7.64.75,87.32,87.32,0,0,0,23.79,2.2c17.27-.63,34.54-1.09,51.81-1.68a22.26,22.26,0,0,0,5.31-.89c3.64-1.08,7.45-2,9.57-6.19C1010.78,693,1006.2,692.74,1001.57,692.85Zm-437.41,89c10.33-1.06,10.1,7.56,12.31,15.21,2.68-4,4.56-6.92,6.58-9.76,3.74-5.26,8.21-7.06,13.22-5.47,5.17,1.64,8.1,5.48,8.22,11.81.2,10.33,0,20.66,0,31,0,4.45.9,8.29,7.11,9.3l8.44-5.15a94,94,0,0,0-.48-9.82c-1.53-10.28.67-20,4.27-29.45.8-2.11,2.38-3.91,3.37-5.49l11.33-2.54c13,2.92,17,9.86,13.5,23.29-4.19,8.28-13.59,8.83-19.22,14.24.2,7,3.6,11.49,9.49,15a43.39,43.39,0,0,0,23.57-9.77c.3-7.44.36-14.82,1-22.15.57-6.88-2.45-14.55,3.43-20.24,5.08-.36,6.42,3.42,8.71,6.68,5.74-3.85,11.38-8.57,20-3.29-11.25,3.68-18.1,10.36-19.55,22.62a126.62,126.62,0,0,1,.2,33.58l-9.14,1.5c-5.72-3.77-2.22-10-5-15.08-4.34,2.55-8.44,5.05-12.63,7.38a87.11,87.11,0,0,1-9,4.45c-8.84,3.64-13.71,2.3-19.51-5.18-.94-1.21-1.68-2.57-2.54-3.9-7.71,4.88-12.67,13.12-22.67,10.2-5.72-3.9-6.43-10.38-6.56-16.41-.21-9.76.79-19.54,1.12-29.31.12-3.45-.22-6.9-.39-11.53-2.81,1.39-4.54,1.86-5.75,2.92a30.63,30.63,0,0,0-11,24.59c.12,7.49-.06,15,0,22.48,0,3.45-.92,6.12-5.43,7.07l-5.89-4.44C562.58,829.07,561.84,791,564.16,781.88Zm76.28,2.67c-5.23.94-6.71,1.36-7.06,4.76-.82,8-.86,16.15-1.19,24.23,0,.14.38.29.58.44C645.83,808.83,648.9,797.57,640.44,784.55Zm-174.73,58L449.22,845c-3.41-1.43-2.51-4.63-2.53-7.31-.12-14,0-27.89-.21-41.84-.05-4.36-.73-8.7-1-13.06a56.14,56.14,0,0,1-.12-8.5c.73-8.45,1.85-16.87,2.42-25.32.14-2-1.29-4-2.19-6.61,5.44-1.25,11.17-4,17.83-2.34,6.25,1.51,12.62,2.57,19,3.65,8.44,1.44,14.05,6,16.58,14.28.59,1.94,1.7,3.73,1.71,5.76a103.75,103.75,0,0,1,1.8,10.25c.43,5.33,1.67,11,.32,16-2.37,8.63-6.11,17-10,25.09-1.41,3-4.81,5-7.33,7.4-.93.88-2,1.59-2.9,2.51C476.89,830.82,471.23,836.75,465.71,842.51Zm-5.81-96c.69,18.26,1.3,36.46,2.11,54.66.27,5.89,1,11.78,1.71,17.63a63.79,63.79,0,0,0,1.94,7.73l1.64.2c2.36-4.09,4.43-8.4,7.17-12.22a77.31,77.31,0,0,0,12.64-26.33c2.73-11.05,3.39-22.37-3-32.9C478.72,746.45,470.16,743.28,459.9,746.56ZM736,838.68l-9.2-9.16c-3.48-13.87,1-24.53,9.91-33.91,2.26-2.36,4.14-5.09,6.42-7.94-2.47-4.29-4.65-8-6.8-11.81-5.9-10.35-5.42-17.81,1.72-27.15,3-3.94,6.69-5.68,16.06-7.46l3.73,4.48c-9.08,1.79-6.79,10.13-10.13,14.87,1.64,9,1.64,9,6.51,12.5,10.88-9.28,13.38-17.43,8.47-28.9,4.7.42,6.53,3.93,9,6.72,1.32,8.15-.27,15.31-5.57,21.79-2.57,3.14-4.33,7-7,11.31L772.45,806l8.61-10.22,1.38.88c-2,4.82-4,9.65-6.2,14.9l20.57,21.61-3.64,3.31-3.32,3c-9-.84-13.75-7.91-20.56-13.25-4,5.48-7.5,12.11-14.31,13.18C748.8,840.29,742.27,839,736,838.68Zm19.18-3.77a31,31,0,0,0,4.55-3.73c4.5-5.31,7-9.11,2-15.62-3.08-4-5.06-8.9-7.69-13.3a68,68,0,0,0-4.52-5.84c-1.25,2.47-2.4,3.75-2.48,5.09-.5,7.89-.9,15.79-.94,23.7,0,1.47,1.53,3.16,2.74,4.38C750.69,831.46,752.87,833,755.16,834.91Zm204.69-7.25c0-12.66.17-25.33,0-38-.12-7.72-1.07-15.42-1.17-23.14-.06-4,.92-8.09,1.42-12l8.4-4.26c2.38,5.38,5,10.08,5.18,15.57.34,10.27.49,20.55.78,30.83.19,6.7.61,13.4.66,20.1,0,3.58-.51,7.17-.88,11.68l3,4.75c4.58.15,6.62-2.29,8.29-5.43q3.27-6.15,6.78-12.17c2.38-4.09,1.57-8.44,1.48-12.83-.21-10.78-.08-21.56-.05-32.35,0-3.86.4-7.75.11-11.59-.54-7.18-.69-7.17,3.91-13.76l12.64-2.66c6.78,9.48,6.27,19.37,4.4,29-1.77,9.07-5,17.86-7.71,27.25.24,4.45.52,9.5.79,14.56l-.95.17c-.79-1.81-1.57-3.63-3.1-7.16V818l3.24,4.12c.93,4.46,1.86,9,2.87,13.83l7.93,3.2,11.72-7.7a22.78,22.78,0,0,1-15.24,11.1c-11.9-4.54-14.22-7.2-20.29-23.44-7,6.91-7.2,19.5-18.45,21.94l-11.92-4.92c-.91-2.06-2.34-5.29-3.78-8.52ZM1005.73,788c1-.58,1.74-.72,1.85-1,3.69-11.34,6.16-22.88,5-34.91-.37-3.73-2.16-6.26-6.34-6.31-3.54,2.05-2.76,5.09-2.54,8.22.68,9.68,3.34,19.27,1.21,29.09C1004.57,784.54,1005.39,786.24,1005.73,788ZM824,779.23c.67-2.25,1.31-4.39,1.94-6.53l1.21.3c-.33,3.75-.67,7.51-1,11.13l-4,3c-.24,17.75-1,34.48,5.86,51.12l15.93,3.15,15.8-9.35,8.47,10.71c4.72-2.18,4.76-5.61,4.62-9-.49-12.87-1-25.74-1.67-38.6-.07-1.35-1.1-2.64-1.53-3.62l-19,3.92,9.49,3.33v27c-7.12,5.92-10.19,7.38-16.33,7.51-1.06-3.56-3-7.38-3.22-11.28-.87-17.75-1.23-35.53-1.8-53.3-.21-6.68,2-12.75,4.9-18.53,3-6.17,6.16-7.08,13.32-5,5.21,6.29-1.07,15.59,5.28,21.58,7.64-2.14,9.07-6.66,6.81-20.69-5.17-7.91-13.79-3.52-20.1-5.82C830.15,745.45,824.28,757.76,824,779.23Zm-297,1.63c1.28.39,2.71,1.2,4.14,1.21,9.22,0,14.81,3.42,17.91,12.23,4.58,13,4.4,32-6.09,44.4l-4.1-1.19-8.79,3.75c-11.51-3.68-18.1-12.07-18.31-23.24-.14-7.46-.22-14.9,2-22.22C515.77,789,519,783.49,527,780.86Zm2.06,5.87c-.81,1.89-1.84,3.47-2.17,5.18a97.52,97.52,0,0,0-.17,35.28c.85,4.89,3.68,8.32,9.65,9.35,1.51-3,4-5.83,4.27-8.88a298.79,298.79,0,0,0,1.77-32.33C542.34,787.67,537.9,785.16,529.06,786.73ZM901,805.65c1.79-3.78,3.07-8.91,6.18-12.41s8.18-5.56,12.81-8.52c-3.61-2.22-7-2.63-10.17-1.39s-6.13,3.35-9.54,5.29c-1.5-4-3.48-6.93-7.8-6.77-3.13,2.31-3.82,5.49-3.83,9,0,14.65-.85,29.3,0,43.95.18,3.12.18,6.27,3.85,8.19l9-1.39A138.16,138.16,0,0,0,901,805.65Zm58.86,22c-5.19.81-8.53,6.82-15,5.4-3.79-15.19-1.32-30.85-4.75-47.52l-3.64-4.82c-7.1,3.42-7.25,3.42-7.39,8.62-.23,8.74.59,17.61-.62,26.21a49.28,49.28,0,0,0,1.45,21.26c4.07,3.41,8.73,4.87,13.64,2.92,6.42-2.54,12.53-5.81,16.27-12.09Zm-32.4-83.25.62,7.73,7.25,1.81c1.52-2,2.83-3.76,4.23-5.62l-6-7.28ZM518.54,771c2.4,3.33,5.33,3.57,9,1.51.25-1.77.53-3.73,1-6.78l-4.47-4.55C519.91,764.1,516.9,766.31,518.54,771Zm19-7.73c-.15,3.37-.27,6-.42,9.21h9.33c.24-2.77.41-4.88.66-7.85Z" transform="translate(-342.47 -61.59)"/></svg>