<svg id="Layer_1" data-name="Layer 1" xmlns="http://www.w3.org/2000/svg" viewBox="0 0 559.36 392.95"><defs><style>.cls-1{fill:#fc0;}.cls-2{fill:#9a0000;}.cls-3{fill:#fff;}</style></defs><title>unicorny</title><path d="M743.31,322.38c3.65.5,7.27.74,10.87,1s7.2.41,10.79.59l2.69.12a18,18,0,0,1,2.66.21c.88.15,1.72.44,2.58.64s1.74.36,2.61.52q5.22,1,10.46,1.87c7,1.15,14,2.14,20.94,2.73l1.39.12c.57.05,1.13.13,1.69.22a25.75,25.75,0,0,1,3.23.75,35.87,35.87,0,0,1,5.79,2.33c3.56,1.79,6.63,3.81,9.58,5.48a44.12,44.12,0,0,0,4.31,2.21c.35.16.7.29,1.05.43s.63.23,1,.34c.66.21,1.37.38,2.13.54,1.51.32,3.25.53,5.26.93a22,22,0,0,1,6.53,2.27,18.43,18.43,0,0,1,5.51,4.77,34.77,34.77,0,0,1,3.4,5.27c1.86,3.52,3.18,6.88,4.68,9.74a34.15,34.15,0,0,0,5.43,7.63,32.75,32.75,0,0,0,7.35,5.9,7.94,7.94,0,0,1,1,.57,11.19,11.19,0,0,1,.92.8c.6.55,1.23,1.09,1.88,1.61a42,42,0,0,0,4.14,2.93,35.34,35.34,0,0,0,4.63,2.5,44.46,44.46,0,0,0,5.11,2,31.3,31.3,0,0,1-5.6,1.05,39.29,39.29,0,0,1-5.85.08,38.73,38.73,0,0,1-5.92-.85c-1-.22-2-.48-2.95-.77a7,7,0,0,1-2.72-1.31,51.26,51.26,0,0,1-9.3-7.65,43.84,43.84,0,0,1-7-9.86c-1.82-3.5-3.13-6.84-4.64-9.66a25.72,25.72,0,0,0-2.41-3.77,8.71,8.71,0,0,0-2.55-2.25,12.38,12.38,0,0,0-3.61-1.2c-1.51-.3-3.34-.53-5.34-.94a29.87,29.87,0,0,1-3.09-.79c-.52-.17-1-.35-1.58-.55s-1-.39-1.43-.59a54,54,0,0,1-5.27-2.69c-3.29-1.88-6.24-3.8-9.1-5.22a26.91,26.91,0,0,0-4.17-1.7,19.38,19.38,0,0,0-2-.47c-.33,0-.65-.09-1-.12l-1.29-.12c-7.38-.62-14.57-1.65-21.74-2.82-3.59-.58-7.16-1.24-10.73-1.92l-2.68-.51c-.9-.15-1.81-.22-2.7-.42a17.71,17.71,0,0,1-2.59-.91l-2.57-1c-3.41-1.41-6.8-2.89-10.12-4.53A78.48,78.48,0,0,1,743.31,322.38Z" transform="translate(-529 -211.51)"/><path d="M654.18,604.47l2.08-7.37c.15-.53.26-.94.35-1.28a16.1,16.1,0,0,1,.6-1.93l1.11-2.71c1.95-4.8,4-9.76,6-14.61,1-2.29,3.43-4.79,6.49-4.9s5.8-1.63,9.5-3.95a31,31,0,0,1,6.71-2.9,27.15,27.15,0,0,0,4.21-1.67,7.18,7.18,0,0,0,2.86-2.58c.81-2.4,1.56-4.83,2.27-7.29A18.79,18.79,0,0,1,683,561.65c-4.14.62-8.35,1.36-12.43,2.08-3.53.62-7.17,1.26-10.79,1.83-1.53.24-5.38.57-8.14-1.59-3.43-2.69-6.71-5.52-10.18-8.52-1.27-1.09-2.56-2.21-3.91-3.36l-5.24-4.47,5.88-3.6,2.07-1.29c1.37-.87,2.67-1.69,4.06-2.42l1.41-.74c3.41-1.8,6.94-3.65,10.64-5.21a11.57,11.57,0,0,1,8.86.14,25.08,25.08,0,0,1,4.23,2.58c1.47-.67,2.8-1.28,4.13-1.92.76-.37,1.5-.68,2.21-1a10.88,10.88,0,0,0,2.52-1.24q1-1.11,2.07-2.22c4.41-4.71,8.59-9.17,11.85-14.17,7.39-11.33,17.92-19.08,32.2-23.69a62.7,62.7,0,0,0,6.19-2.5c1.17-.52,2.38-1.06,3.61-1.56v0c-.74-14.26,1.65-26.63,7.32-37.8,0-.08.09-.17.13-.25a90.14,90.14,0,0,0-11.24,5.67c-9.59,5.92-17.38,13.93-25.61,22.42-1.64,1.68-3.27,3.37-4.92,5-.86.87-1.72,1.74-2.57,2.62-4.22,4.29-8.58,8.72-13.27,12.78-6.08,5.27-13,6-19.43,2l-3-1.83-.88.86c-.6.59-1.19,1.18-1.8,1.75l-3.09,2.95-5.5-4.21a71.65,71.65,0,0,0-5.28,8.2c-1.22,2.1-2.48,4.27-3.89,6.36L635,524.47l-2.81-10.71a34.19,34.19,0,0,1-1.13-10.92l-4.44-2.6-9.09,9,3.66-10.12-1.46-10a27.71,27.71,0,0,1,.63-11.37l-4.21-4.24L610.26,477,618,461.66c5.3-10.46,13.62-22.74,31-24.79,4.58-.54,9.41-2.71,13.58-4.7,5.06-2.42,10.1-5.28,15-8.05,1.82-1,3.63-2.06,5.46-3.07,16.09-8.94,30.91-12.07,45.32-9.6,8.86,1.53,17.63,3.76,26.13,5.92,3.39.87,6.79,1.73,10.2,2.55a8.94,8.94,0,0,1,2.83,1.31l.1.06a8.59,8.59,0,0,0,1.74.25c2.66-.7,5.36-1.44,8.06-2.19L766.35,418l3.19-5.49-15.85-2.78,7.45-4.59-20.52-4.71,4.27-1.71-10.85-1,9.22-6.75-18.12-4.72,11.06-4.78c-1.52-.48-3.13-.89-4.81-1.32l-5-1.29,0-9.54.65-.08-20.88-10.62,6.53-.23-16.88-6.71,21.13-.74-15.09-11.16,8.93-.31-13-8.72,10.89-2.34L707.19,327a10,10,0,0,1-2.43-3.8c-.1-.22-.18-.44-.29-.65l-3-5.79,6.38-1.39c.25-.06.51-.14.76-.22a10.36,10.36,0,0,1,4.89-.57c1.77.3,3.49.71,5.12,1.15l-.15-.24a9.57,9.57,0,0,1-1.35-4.4c0-.22,0-.45-.09-.67l-1.21-5.91,6-.08c.21,0,.42,0,.64-.07a8.65,8.65,0,0,1,5.16.61l2,1a55,55,0,0,1,10,5.79,47.42,47.42,0,0,0,9.88,6.08l-11.29-12.93-.56-.22.24-.16-1-1.08,1.86.46,8.49-5.79-9.34-15,8.11,2.62-9.12-13.6,10.85,2.13c-.27-.55-.55-1.1-.81-1.66a8.12,8.12,0,0,1,.4-7.35,5.41,5.41,0,0,1,3.4-2.49,8.3,8.3,0,0,1,5.92.91c1.62,1,3.08,2,4.42,2.9a16.19,16.19,0,0,1,.38-3.76c.08-.39.15-.78.2-1.16l.87-7.53,6.58,3.77c.3.17.63.31.95.47a11.7,11.7,0,0,1,4.34,3,133.38,133.38,0,0,1,8.44,11.15c11.22,16.74,22,27.15,35,33.73a26.25,26.25,0,0,1,6.12,4.1c8.76,8.1,19.42,14,33.55,18.62a15.37,15.37,0,0,1,8.3,6.36,94.19,94.19,0,0,1,7.16,15.23A89.52,89.52,0,0,1,875.6,360c.56,2.33,1.09,4.53,1.76,6.67a17.67,17.67,0,0,0,5.89,8.36l3-1.7.08-.17a11.84,11.84,0,0,1-6.82-8.42l-.56-2.47a9.37,9.37,0,0,1-1-.7,9.51,9.51,0,0,1-3.45-6.75l-.71-7.2,7,1.88c2.42.65,5.88-.28,9-2a16.71,16.71,0,0,1-5.15-2.2A14.28,14.28,0,0,1,878.28,335l-1.06-8,7.66,2.65c4,1.37,7.22,1.44,11.07-2-3.2-4-6-9.39-3.57-17l2.22-7,3.7,3-2.39-5,10.49,2.78a49.34,49.34,0,0,0,17,1.88c-2.17-4.26-2.24-6.51-.4-11l2.3-5.65,5.09,3.36c1,.64,1.89,1.31,2.78,2a28.44,28.44,0,0,0,5.39,3.34c1.06-2.84,2.57-5.22,5.47-6.05a7.39,7.39,0,0,1,5.91,1l.92-1.77,11.68,7.07c.59-1.1,1.15-2.14,1.74-3.18,2.23-3.91,5.18-4.53,6.75-4.55h.08c1.6,0,4.53.6,6.85,4.43.71,1.17,1.34,2.35,2,3.55l28.81-21.15,6.64,7.15-22.66,34.12a10.58,10.58,0,0,1,2,2.86,20.06,20.06,0,0,1,1.44,6.34l.12,1a13.22,13.22,0,0,1,0,2.67c0,.15,0,.34,0,.49,2.85,7,7.7,12.81,12.84,19l.52.63a79.16,79.16,0,0,1,9.72,15.41c2.75,5.5,1.4,11.57-3.72,16.65a9.34,9.34,0,0,1-10.29,2.33,10.17,10.17,0,0,1-4.54,3.06,9.46,9.46,0,0,1-7.7-1c-3.35-1.9-8.17-4.92-11.26-9.28-4.29-6-8.91-8.29-15.48-7.54a3.43,3.43,0,0,0-.53.09,5.21,5.21,0,0,0-.26.75c-1.59,5.74-1,11.73,1.87,18.29,6.08,14.07,10.13,25.92,12.73,37.29a105.61,105.61,0,0,0,6.41,19.28c2.22,5,4.54,11,5,18,1.66,0,3.31,0,4.93,0,6.92,0,13.45,0,19.72-1.13,14.57-2.57,25.82,1,34.39,11,5.59,6.48,11.08,13.19,16.4,19.68q4,4.89,8,9.76c.47.57.93,1.17,1.39,1.78a13.06,13.06,0,0,0,2.45,2.75c10,6.47,9.69,16.78,9.52,23.6l-.11,4.3-4.26.54c-.37,0-.71.1-1,.14a17.63,17.63,0,0,1-2.75.28l-1.55,0a60.71,60.71,0,0,1-6.83-.16c-7.75-.74-10.61-3.19-12.73-10.93-.14-.49-.36-1.31-.57-1.91-4-1.89-5.8-5.32-7-7.67l-.59-1.09c-1.6-2.9-3-5.87-4.44-8.74-.84-1.72-1.67-3.43-2.54-5.13-3.11-6.08-13.19-10.86-18.6-8.82a52.94,52.94,0,0,0-6.28,2.93,53.61,53.61,0,0,1,9.48,7.77,214.92,214.92,0,0,0,18.88,16.13c.72.55,1.45,1.08,2.17,1.61,4,2.95,8.56,6.3,11.5,11.73a7.71,7.71,0,0,0,2.72,2.51c9.65,5.92,9.87,15.15,10.06,23.29l.13,5.5-4.94.18c-1.25,0-2.48.12-3.67.19a61.8,61.8,0,0,1-8.41.13c-8.69-.65-10.87-3.19-13.4-11a9.7,9.7,0,0,0-2-3.16,10.82,10.82,0,0,0-1.52-1.24,18.67,18.67,0,0,1-3.21-2.81c-2.87-3.38-5.56-6.91-8.16-10.34l-.58-.75a37.4,37.4,0,0,0-19.26-13.44,3.89,3.89,0,0,0-.89-.19c-2.69.77-5.44,1.63-8.1,2.45-4.35,1.36-8.85,2.76-13.41,3.89-1.59.39-3.17.8-4.75,1.21-8.55,2.22-17.38,4.51-26.92,4-5.48-.31-13-.74-18.87-5.75-1-.83-1.57-1-3.89-.69-37,5.16-67,4.75-94.56-1.29l-2.87-.62c-7.77-1.68-15.77-3.4-23.39-7.11-1.07.83-2.13,1.68-3.17,2.51a92.26,92.26,0,0,1-13.35,9.38c-16.24,8.76-36,17.72-59.12,17.72h0a3.17,3.17,0,0,0-1.47.77,214.94,214.94,0,0,0-13.32,17.45,47.48,47.48,0,0,0-5,10.92c-2.49,7.37-7,11.78-13.93,13.48a102.13,102.13,0,0,0-10.28,3,11.63,11.63,0,0,0-4,2.12c-6.3,6.09-13.73,6.62-20.29,7.08-1.9.13-3.7.26-5.49.51Zm19-23c-1.6,3.74-3.16,7.54-4.68,11.28,4.89-.38,8.86-1,12.14-4.15a20.62,20.62,0,0,1,7.58-4.35A113.26,113.26,0,0,1,699.45,581c3.48-.86,5.46-2.88,6.84-7a57,57,0,0,1,6.12-13.28,223.37,223.37,0,0,1,13.94-18.28,12.76,12.76,0,0,1,9.17-4.38h0c20.92,0,39.23-8.35,54.38-16.52a83,83,0,0,0,11.85-8.4c1.91-1.52,3.89-3.1,5.94-4.61l2.61-1.94,2.83,1.61c7.16,4.06,15.11,5.77,23.52,7.58l2.91.63c26.35,5.78,55.28,6.15,91,1.16,3.51-.49,7.65-.52,11.76,3,3.08,2.63,7.31,3.06,13,3.38,8,.45,15.68-1.55,23.84-3.67,1.62-.42,3.24-.84,4.86-1.24,4.27-1.06,8.62-2.41,12.83-3.72,2.78-.87,5.66-1.76,8.53-2.58a11.17,11.17,0,0,1,6.42.31A47.78,47.78,0,0,1,1036.07,530l.57.76c2.52,3.31,5.12,6.74,7.81,9.9a11,11,0,0,0,1.53,1.25,18.14,18.14,0,0,1,3.09,2.68,19.6,19.6,0,0,1,4,6.69,23.52,23.52,0,0,0,1.42,3.68,13.85,13.85,0,0,0,3.22.46,44.72,44.72,0,0,0,6-.08c-.33-5.19-1.3-8.37-5.13-10.72a17.61,17.61,0,0,1-6.29-6.27c-1.87-3.47-5-5.77-8.63-8.43l-2.3-1.71a225.28,225.28,0,0,1-19.75-16.88c-4.14-4-7.71-7.42-12.61-8.28a8.62,8.62,0,0,1-2.44-.87l-.2-.1a5.08,5.08,0,0,1-2.88-3.92c0-.11,0-.28-.1-.52l-.82-3.74,3.39-1.77c1.46-.76,2.92-1.57,4.46-2.43a83.51,83.51,0,0,1,11.41-5.64c10.18-3.83,25.55,2.92,31,13.63q1.34,2.64,2.62,5.31c1.4,2.88,2.72,5.6,4.2,8.26.23.42.46.86.69,1.3,1.17,2.22,1.67,3,2.78,3.4,3.71,1.26,4.85,5.39,5.6,8.12a13.22,13.22,0,0,0,1.1,3.17,11.56,11.56,0,0,0,3,.51,53.35,53.35,0,0,0,5.57.11c-.21-5.21-1.35-8.15-5-10.5a20.13,20.13,0,0,1-5-5.1c-.36-.48-.73-1-1.11-1.43-2.7-3.25-5.38-6.53-8.07-9.8-5.27-6.44-10.73-13.11-16.23-19.5-6.26-7.26-14-9.63-25.09-7.68-7.11,1.26-14.39,1.27-21.43,1.29-3,0-6.18,0-9.26.12l-4.64.16-.5-4.61c-.07-.64-.14-1.21-.2-1.74-.14-1.11-.25-2.07-.32-3.09-.35-5.5-2.31-10.53-4.18-14.73a114.68,114.68,0,0,1-7-21.11c-2.47-10.77-6.34-22.07-12.17-35.56-3.73-8.62-4.51-17-2.33-24.92,1.35-4.9,4.39-7.56,9.29-8.12,10.26-1.17,18.36,2.66,24.77,11.69,1.91,2.69,5.41,4.87,7.92,6.3a7.92,7.92,0,0,0,1.08-1.81l2.23-4.7,5.35,2.8a16.9,16.9,0,0,0,2,1c2.91-2.89,2.11-4.48,1.82-5.07a69.69,69.69,0,0,0-8.47-13.5l-.53-.63c-5.49-6.62-11.18-13.46-14.59-22.09a9.8,9.8,0,0,1-.49-4.53c0-.25,0-.6,0-.73,0-.35-.08-.75-.13-1.15a12.46,12.46,0,0,0-.61-3.28,15.16,15.16,0,0,0-1.2-1.18c-.53-.49-1.12-1-1.74-1.7l-2.74-2.89,11.56-17.41-15.16,11.13-2.67-5.25c-.5-1-1-1.94-1.43-2.87-.34-.72-.68-1.41-1-2.09l-.72,1.37-1.52,2.9-2.48,4.67-11.62-7L952.94,309l-4.82-4.48c-.31-.3-.6-.56-.87-.8-.12.41-.25.88-.39,1.4l-1,3.48-3.6.2a17,17,0,0,1-6.47-.91l3,5.12-6.37,1.72A48.79,48.79,0,0,1,913.94,316l3.34,6.95-7.78.15a16.11,16.11,0,0,1-4.75-.61q.71.78,1.56,1.68l3,3.15-2.71,3.41a30.32,30.32,0,0,1-7,6.65l.59-.16,9.33-2.69-3.23,9.15a22.06,22.06,0,0,1-7.3,9.58l4.07-.46-3.34,7.88a18.46,18.46,0,0,1-3.22,5.23l3.73,1L899,369.57l3.24,6.2-6.93,3.91,1.94,1.66-5.08,11.14-5-3c-7.52-4.45-16-9.49-19.3-19.91-.77-2.45-1.37-4.91-1.94-7.29a70.91,70.91,0,0,0-8.76-22,5.73,5.73,0,0,0-2.74-1.87c-15.34-5-27.52-11.8-37.25-20.8a17.19,17.19,0,0,0-3.85-2.51c-14.59-7.4-26.55-18.84-38.77-37.09-.34-.5-.68-1-1-1.52.15.61.3,1.24.46,1.88l3.61,15.1-11.75-10.15c-.9-.78-1.76-1.54-2.59-2.28l-1.4-1.22,1.52,2.95c.31.62.53,1.19.79,1.85l.43,1.08,6.33,15.52-8.29-5.72-3.24,3.08,5.26,8.44-2.08,1.81,3.75,3.72-4.09,4.59L774.23,331,763,330.79c-10.66-.2-20.05-3.75-29.55-11.18l0,0,1.82,2.61,8.6,12.44-14.32-4.86c-1.14-.38-2.23-.76-3.3-1.13L723,327.54l2.56,2.19a21.85,21.85,0,0,1,2.92,2.85L737,343.07l-6.28-1.15-1.94,5.25,8.16,6-1.79,3.28,5.14,2-1.46,5.41,10.62,5.41-2.93,5.8a23.43,23.43,0,0,1,4.3,3.44l5.15,5.2-.14.06,10.4,2.71-5,3.65,7.23.68-.09,5.62,9.74,2.24-.44,5,7.75,1.36-2.79,4.78,11.15,1.38-.83,2,7.84.13,1.82,9.16-5.18,1.5-1.75.5-5.84,1.65c-5.87,1.66-11.94,3.38-18,5a14,14,0,0,1-6.57-.22,8.84,8.84,0,0,1-3.13-1.36l-.13-.09c-3.34-.81-6.71-1.67-10-2.5-8.3-2.11-16.89-4.3-25.35-5.75-12.25-2.11-24.56.59-38.78,8.48q-2.7,1.5-5.38,3c-5,2.85-10.24,5.8-15.61,8.37-4.89,2.34-10.62,4.89-16.72,5.61-.93.11-1.84.26-2.72.45l-10.12,12.88,9-4.32-12,16.22-.74,1,3.83,2.44,18.43-18.24-12,25.23,7.3-5.66-6.84,15.56a27,27,0,0,1,11.77-7.64l10-3.22-1.4,3.64a18,18,0,0,1,7.67-1l3.75.28.77,3.68a9.77,9.77,0,0,1,.06,4c.18-.13.35-.28.53-.43,4.38-3.79,8.6-8.08,12.68-12.23l2.59-2.64c1.63-1.64,3.24-3.3,4.85-5,8.3-8.56,16.89-17.4,27.54-24a120.9,120.9,0,0,1,15.63-7.69c1.38-.6,2.75-1.19,4.12-1.8a14,14,0,0,1,5.3-1c.64,0,1.29-.05,1.95-.12l10.15-1.09-5.36,8.69c-.84,1.36-1.67,2.64-2.46,3.87a76.45,76.45,0,0,0-4.05,6.73c-4.86,9.57-6.9,20.28-6.25,32.75.25,4.77-1.67,8-5.69,9.61-1.26.5-2.52,1.06-3.85,1.65a73.07,73.07,0,0,1-7.18,2.88c-12.17,3.93-20.72,10.17-26.9,19.63-3.74,5.73-8.41,10.72-12.92,15.55l-2,2.19a16.08,16.08,0,0,1-6.06,3.69c-.59.24-1.15.47-1.61.7-1.49.72-3,1.41-4.67,2.17l-2.36,1.09-2.6,1.2L665.94,547c-.44-.31-.93-.67-1.45-1.08a21.31,21.31,0,0,0-3.53-2.33,2.45,2.45,0,0,0-.8,0c-3.26,1.37-6.45,3-9.82,4.83l-1.11.58c2.75,2.37,5.39,4.63,8.06,6.74a4.21,4.21,0,0,0,.88-.06c3.53-.55,7.13-1.18,10.61-1.8,4.14-.73,8.43-1.48,12.68-2.12a8.79,8.79,0,0,0,6.94-4.52c3.8-6.43,9.64-10.23,14.85-13.1l10.43-5.76-3.2,11.48c-.64,2.26-1.24,4.49-1.84,6.7-1.6,5.94-3.11,11.55-5,17.2-1.54,4.58-6.15,7.4-7.52,8.15a35.64,35.64,0,0,1-5.84,2.39,22.61,22.61,0,0,0-4.6,1.9C682.33,578.29,678.26,580.83,673.14,581.51Zm-1.94.16Zm-14.15-26ZM1010.55,493h0Zm-248.7-63.56Zm236.33-49.74Zm10.09-2.74Zm-42.7-5.36Zm3.6-71.55Z" transform="translate(-529 -211.51)"/><circle class="cls-1" cx="101" cy="84.49" r="79"/><path d="M630,380.49A84.49,84.49,0,1,1,714.49,296,84.58,84.58,0,0,1,630,380.49Zm0-158A73.51,73.51,0,1,0,703.51,296,73.58,73.58,0,0,0,630,222.49Z" transform="translate(-529 -211.51)"/><path class="cls-2" d="M670.63,277.38c0,22.44-40.63,77.87-40.63,77.87s-40.63-55.43-40.63-77.87a40.63,40.63,0,0,1,81.26,0Z" transform="translate(-529 -211.51)"/><path d="M630,364.53l-4.42-6c-4.27-5.82-41.69-57.56-41.69-81.11a46.11,46.11,0,1,1,92.22,0c0,23.55-37.42,75.29-41.69,81.11Zm0-122.29a35.17,35.17,0,0,0-35.14,35.14c0,15,22.37,50.13,35.14,68.43,12.77-18.3,35.14-53.46,35.14-68.43A35.17,35.17,0,0,0,630,242.24Z" transform="translate(-529 -211.51)"/><circle class="cls-3" cx="101" cy="65.86" r="14.11"/><path d="M630,297a19.59,19.59,0,1,1,19.59-19.59A19.61,19.61,0,0,1,630,297Zm0-28.21a8.62,8.62,0,1,0,8.62,8.62A8.63,8.63,0,0,0,630,268.76Z" transform="translate(-529 -211.51)"/><path d="M578,451H534a5,5,0,0,1,0-10h44a5,5,0,0,1,0,10Z" transform="translate(-529 -211.51)"/><path d="M578,476H548a5,5,0,0,1,0-10h30a5,5,0,0,1,0,10Z" transform="translate(-529 -211.51)"/><path d="M578,501H563a5,5,0,0,1,0-10h15a5,5,0,0,1,0,10Z" transform="translate(-529 -211.51)"/></svg>